<svg width="18" height="20" viewBox="0 0 18 20" fill="none" xmlns="http://www.w3.org/2000/svg">
<path d="M4.74409 9.8V5.3C4.74409 4.15957 5.19712 3.06585 6.00353 2.25944C6.80993 1.45303 7.90366 1 9.04409 1C10.1845 1 11.2782 1.45303 12.0846 2.25944C12.8911 3.06585 13.3441 4.15957 13.3441 5.3M9.04409 13.5V15.5M15.6441 19H2.44409C2.31067 19.008 2.17708 18.9876 2.05212 18.9402C1.92716 18.8928 1.81368 18.8194 1.71917 18.7249C1.62466 18.6304 1.55127 18.5169 1.50386 18.392C1.45644 18.267 1.43607 18.1334 1.44409 18V10.8C1.43607 10.6666 1.45644 10.533 1.50386 10.408C1.55127 10.2831 1.62466 10.1696 1.71917 10.0751C1.81368 9.98057 1.92716 9.90719 2.05212 9.85977C2.17708 9.81235 2.31067 9.79198 2.44409 9.8H15.5441C15.6775 9.79198 15.8111 9.81235 15.9361 9.85977C16.061 9.90719 16.1745 9.98057 16.269 10.0751C16.3635 10.1696 16.4369 10.2831 16.4843 10.408C16.5317 10.533 16.5521 10.6666 16.5441 10.8V18C16.5688 18.13 16.5613 18.2642 16.522 18.3906C16.4828 18.517 16.4131 18.6318 16.3191 18.725C16.1386 18.9013 15.8964 19 15.6441 19Z" stroke="#A3A3A3" stroke-width="2" stroke-linecap="round" stroke-linejoin="round"/>
</svg>
