<svg width="20" height="20" viewBox="0 0 20 20" fill="none" xmlns="http://www.w3.org/2000/svg">
<path d="M8.00004 10.7H12M1.30004 5.60005H18.7M1.60004 5.10005L2.90004 3.35005L4.20004 1.60005C4.28379 1.41641 4.41801 1.26034 4.58704 1.15005C4.77325 1.04351 4.98568 0.991529 5.20004 1.00005H14.9C15.0998 1.00098 15.2966 1.04821 15.475 1.13805C15.6457 1.21989 15.7921 1.34463 15.9 1.50005L17.2 3.25005L18.5 5.00005C18.5921 5.09659 18.653 5.21851 18.675 5.35005C18.6949 5.4656 18.7033 5.58284 18.7 5.70005V19H1.30004V5.80005C1.29704 5.66716 1.32262 5.53519 1.37504 5.41305C1.4298 5.29556 1.50612 5.18939 1.60004 5.10005Z" stroke="#A3A3A3" stroke-width="2" stroke-linecap="round" stroke-linejoin="round"/>
</svg>
