<svg width="18" height="14" viewBox="0 0 18 14" fill="none" xmlns="http://www.w3.org/2000/svg">
<path d="M9 4.91668C9.48199 4.91677 9.94903 5.08398 10.3216 5.38982C10.6941 5.69565 10.949 6.12119 11.043 6.59393C11.1369 7.06667 11.0641 7.55736 10.8368 7.9824C10.6095 8.40743 10.2419 8.74052 9.79656 8.92489C9.35124 9.10927 8.85576 9.13353 8.39455 8.99355C7.93334 8.85357 7.53493 8.558 7.26721 8.1572C6.9995 7.75641 6.87903 7.27518 6.92634 6.79553C6.97365 6.31587 7.18581 5.86745 7.52667 5.52668C7.72016 5.33324 7.94986 5.17981 8.20266 5.07514C8.45546 4.97048 8.72639 4.91663 9 4.91668ZM9 1.66668C10.1153 1.65057 11.2204 1.88128 12.236 2.3423C13.2517 2.80332 14.1529 3.48323 14.875 4.33335C15.5689 5.12001 16.119 6.02267 16.5 7.00002C16.119 7.97737 15.5689 8.88002 14.875 9.66668C14.1529 10.5168 13.2517 11.1967 12.236 11.6577C11.2204 12.1188 10.1153 12.3495 9 12.3334C7.8847 12.3495 6.77964 12.1188 5.76396 11.6577C4.74828 11.1967 3.84711 10.5168 3.125 9.66668C2.43107 8.88002 1.88101 7.97737 1.5 7.00002C1.88101 6.02267 2.43107 5.12001 3.125 4.33335C3.84711 3.48323 4.74828 2.80332 5.76396 2.3423C6.77964 1.88128 7.8847 1.65057 9 1.66668Z" stroke="#A3A3A3" stroke-width="1.66667" stroke-linecap="round" stroke-linejoin="round"/>
</svg>
