<svg width="18" height="16" viewBox="0 0 20 20" fill="none" xmlns="http://www.w3.org/2000/svg">
<path d="M11.2 12.2C11.0088 12.2967 10.8076 12.3722 10.6 12.425C10.4038 12.4745 10.2023 12.4997 10 12.5C9.6708 12.5032 9.34427 12.4407 9.03951 12.3162C8.73475 12.1917 8.45787 12.0077 8.22509 11.7749C7.9923 11.5421 7.80827 11.2653 7.68377 10.9605C7.55927 10.6557 7.49679 10.3292 7.5 10C7.49897 9.70185 7.54972 9.40578 7.65 9.125C7.74529 8.85339 7.89889 8.60593 8.1 8.4M9.3 3.6H10C11.3384 3.58066 12.6644 3.85752 13.8832 4.41074C15.1021 4.96396 16.1835 5.77986 17.05 6.8C17.8827 7.74399 18.5428 8.82718 19 10C18.927 10.2222 18.8395 10.4393 18.738 10.65C18.4786 11.1971 18.1643 11.7164 17.8 12.2M14.9 15C14.2161 15.4249 13.4808 15.7609 12.712 16C11.8332 16.2687 10.919 16.4035 10 16.4C8.66164 16.4193 7.33557 16.1425 6.11675 15.5893C4.89794 15.036 3.81654 14.2201 2.95 13.2C2.11728 12.256 1.45721 11.1728 1 10C1.24373 9.37513 1.54925 8.77616 1.912 8.212C2.70146 6.93412 3.75417 5.83914 5 5M1 1L10 10L19 19" stroke="#a3a3a3" stroke-width="2" stroke-linecap="round" stroke-linejoin="round"/>
</svg>
